<?xml version="1.0" standalone="no"?>
<!DOCTYPE svg PUBLIC "-//W3C//DTD SVG 20010904//EN"
 "http://www.w3.org/TR/2001/REC-SVG-20010904/DTD/svg10.dtd">
<svg version="1.0" xmlns="http://www.w3.org/2000/svg"
 width="16.000000pt" height="16.000000pt" viewBox="0 0 16.000000 16.000000"
 preserveAspectRatio="xMidYMid meet">
<metadata>
Created by potrace 1.11, written by Peter Selinger 2001-2013
</metadata>
<g transform="translate(0.000000,16.000000) scale(0.000548,-0.000548)"
fill="#000000" stroke="none">
<path d="M6459 24629 c-1128 -73 -2145 -658 -2775 -1596 -109 -162 -150 -233
-239 -412 -272 -547 -400 -1124 -382 -1726 17 -559 135 -1034 376 -1515 325
-647 818 -1169 1441 -1527 598 -343 1220 -498 1925 -480 377 10 661 58 999
167 778 252 1434 746 1908 1438 43 62 78 116 78 118 0 2 12 23 26 45 48 77
142 254 192 364 377 830 423 1820 126 2676 -265 763 -775 1417 -1456 1867
-650 430 -1424 633 -2219 581z m971 -326 c401 -149 757 -446 1025 -858 69
-105 120 -195 111 -195 -2 0 -14 16 -25 36 -115 194 -411 527 -606 682 -44 35
-89 71 -99 79 -92 75 -409 251 -508 283 -21 6 -38 14 -38 16 0 7 26 -1 140
-43z m-2331 -247 c-239 -203 -316 -276 -440 -416 -481 -541 -740 -1207 -821
-2110 -19 -214 -16 -830 6 -1040 58 -572 177 -1047 362 -1438 186 -394 466
-761 792 -1036 50 -43 92 -80 92 -82 0 -2 -53 30 -118 70 -360 224 -628 455
-913 786 -94 108 -146 179 -241 325 -490 751 -663 1658 -492 2573 59 316 198
702 352 977 301 539 725 969 1307 1327 95 58 131 78 114 64z m3365 -203 c673
-497 1141 -1306 1285 -2223 35 -222 45 -360 44 -640 0 -383 -30 -633 -114
-959 -210 -815 -724 -1497 -1519 -2015 -147 -96 -167 -108 -120 -70 83 68 257
234 359 342 183 195 269 317 385 546 222 437 361 952 431 1591 22 201 31 804
16 1042 -51 785 -223 1412 -530 1926 -125 210 -241 360 -419 541 l-117 119 90
-56 c50 -31 143 -95 209 -144z"/>
<path d="M14330 24519 c-214 -9 -409 -22 -740 -49 -844 -70 -1534 -71 -2542
-4 l-98 7 0 -85 0 -85 73 -13 c94 -16 286 -79 367 -120 295 -149 470 -380 516
-680 32 -208 35 -509 31 -2615 -4 -2260 -2 -2192 -56 -2420 -48 -198 -99 -296
-220 -415 -152 -152 -337 -245 -600 -305 -57 -13 -105 -26 -107 -28 -2 -2 -8
-39 -12 -82 l-9 -78 131 6 c72 4 248 16 391 27 730 56 1274 54 1985 -5 876
-73 1203 -76 1678 -14 474 61 875 182 1282 385 810 406 1360 1037 1644 1888
184 553 232 1233 131 1860 -93 574 -335 1127 -691 1576 -91 114 -347 369 -464
462 -419 331 -846 542 -1350 668 -275 69 -516 103 -855 120 -217 11 -213 11
-485 -1z m225 -209 c281 -31 527 -103 780 -225 523 -255 957 -702 1230 -1270
205 -427 315 -855 356 -1388 15 -197 7 -660 -15 -847 -80 -678 -285 -1253
-612 -1710 -251 -352 -594 -648 -957 -826 -358 -175 -671 -247 -1072 -247
-222 0 -331 16 -487 73 -351 128 -538 359 -607 750 -53 296 -54 379 -43 2795
11 2216 7 2088 68 2280 110 349 368 549 784 609 113 17 449 20 575 6z m-2630
-80 c381 -26 756 -22 1133 11 68 6 125 9 127 7 2 -2 -33 -30 -78 -63 -274
-196 -379 -293 -413 -381 -18 -48 -19 -130 -22 -2744 -2 -1694 1 -2718 7
-2758 13 -85 50 -161 107 -223 44 -46 194 -161 287 -218 21 -13 36 -25 34 -28
-3 -2 -72 2 -153 9 -217 18 -783 15 -1029 -5 -110 -9 -209 -17 -220 -17 -11 0
21 30 85 77 303 222 327 255 341 467 11 176 11 5139 -1 5291 -10 135 -25 189
-72 247 -17 22 -120 106 -227 186 -108 79 -200 149 -206 155 -7 6 19 7 75 3
47 -3 148 -10 225 -16z m3555 -19 c409 -137 774 -341 1090 -607 107 -90 314
-303 403 -414 388 -486 628 -1075 703 -1725 21 -183 24 -604 6 -780 -46 -436
-154 -806 -340 -1169 -237 -462 -562 -844 -984 -1158 -225 -168 -439 -287
-703 -391 -123 -49 -428 -148 -451 -147 -5 1 38 21 96 46 548 236 885 496
1183 912 361 506 580 1164 647 1947 15 179 12 605 -5 795 -56 612 -219 1125
-507 1599 -85 140 -237 344 -348 466 -103 113 -114 123 -230 221 -194 164
-334 257 -580 388 -58 31 -103 56 -100 56 3 0 57 -17 120 -39z"/>
<path d="M22335 24523 c-173 -6 -484 -25 -775 -48 -770 -62 -1374 -76 -1935
-45 -110 6 -323 17 -472 25 -150 8 -280 15 -288 15 -12 0 -15 -16 -15 -83 l0
-83 71 -13 c100 -18 248 -66 346 -112 267 -123 442 -319 517 -579 9 -30 23
-111 33 -180 15 -114 17 -325 19 -2305 1 -1199 -2 -2229 -6 -2290 -25 -326
-71 -516 -159 -655 -46 -73 -169 -194 -258 -253 -124 -83 -305 -154 -481 -190
-41 -9 -76 -17 -78 -19 -2 -3 -7 -39 -12 -81 l-8 -77 60 0 c34 0 246 14 471
31 311 23 507 32 810 36 453 6 695 -3 1220 -47 523 -44 675 -52 955 -51 609 1
1136 91 1615 278 1199 466 1947 1408 2124 2674 77 556 35 1171 -114 1659 -15
47 -33 106 -41 132 -20 66 -94 246 -148 362 -336 719 -928 1277 -1706 1609
-297 126 -664 219 -1035 262 -137 16 -496 36 -580 33 -27 -1 -86 -3 -130 -5z
m155 -218 c398 -49 749 -185 1080 -418 149 -104 218 -164 365 -311 452 -456
764 -1139 859 -1881 41 -323 46 -818 12 -1115 -100 -846 -390 -1520 -870
-2018 -419 -434 -902 -679 -1486 -754 -144 -18 -445 -15 -560 5 -390 72 -670
291 -770 604 -33 102 -62 257 -82 433 -16 145 -13 4402 3 4565 40 392 191 641
474 783 102 51 283 100 425 115 100 11 436 6 550 -8z m-2785 -65 c77 -5 169
-12 205 -15 289 -20 702 -14 1048 16 68 6 125 9 127 7 3 -2 -64 -53 -148 -113
-83 -61 -191 -148 -238 -195 -140 -139 -124 238 -127 -2880 -2 -1866 1 -2716
8 -2764 22 -142 90 -225 309 -377 66 -46 118 -85 116 -87 -2 -2 -70 2 -152 9
-212 19 -776 17 -1030 -4 -111 -9 -210 -17 -220 -17 -9 0 23 30 72 66 50 36
103 75 119 87 16 12 62 51 103 85 107 94 123 131 134 324 6 90 8 1215 7 2748
-3 2428 -4 2599 -21 2653 -32 108 -67 143 -339 344 -87 64 -158 117 -158 119
0 6 33 5 185 -6z m3697 -36 c236 -82 451 -181 643 -297 83 -50 231 -148 270
-179 6 -4 46 -37 90 -71 439 -349 786 -841 989 -1399 216 -596 263 -1297 130
-1943 -125 -611 -436 -1181 -889 -1630 -350 -348 -711 -582 -1145 -743 -145
-54 -380 -126 -387 -118 -2 2 6 7 19 11 46 14 235 100 345 157 276 143 432
256 633 457 384 386 637 853 795 1466 100 390 145 757 145 1190 0 503 -64 920
-206 1340 -114 339 -333 742 -544 1000 -261 319 -572 566 -975 774 -33 17 -57
31 -53 31 3 0 66 -21 140 -46z"/>
<path d="M3007 12703 c-13 -12 -8 -153 6 -157 6 -3 55 -14 107 -26 258 -60
437 -150 590 -296 110 -106 175 -210 220 -359 61 -198 61 -227 58 -2685 -3
-2054 -5 -2223 -21 -2320 -47 -278 -103 -420 -215 -542 -167 -183 -390 -298
-692 -358 l-56 -11 -2 -79 -3 -80 2808 0 2809 0 87 303 c48 166 107 370 131
452 186 637 386 1334 386 1342 0 7 -32 11 -78 12 l-78 1 -109 -137 c-392 -495
-780 -891 -1130 -1155 -418 -314 -762 -470 -1185 -534 -161 -25 -559 -25 -718
-1 -344 54 -555 200 -653 451 -34 87 -64 242 -79 400 -15 165 -15 4433 0 4601
13 146 52 327 89 416 90 215 277 381 556 492 95 38 295 92 383 103 l52 7 0 83
0 84 -1628 0 c-896 0 -1632 -3 -1635 -7z m2258 -202 c-6 -4 -94 -69 -196 -144
-224 -164 -289 -230 -321 -325 l-23 -67 -3 -2552 c-1 -1410 1 -2637 6 -2741 8
-171 12 -194 34 -243 34 -72 96 -132 271 -264 l147 -110 -360 -3 c-198 -1
-523 -1 -722 0 l-363 3 140 104 c161 120 249 201 275 251 10 20 23 62 29 95
15 80 15 5392 1 5484 -21 123 -52 157 -352 382 -90 67 -167 126 -172 130 -6 5
349 9 804 9 453 0 810 -4 805 -9z m3131 -5942 c-63 -217 -122 -420 -131 -451
l-16 -58 -442 0 -442 0 55 31 c299 169 513 318 710 494 103 92 246 235 308
308 36 42 67 75 69 73 2 -2 -48 -181 -111 -397z"/>
<path d="M9312 12629 l3 -82 100 -22 c127 -29 206 -56 322 -110 120 -57 192
-105 282 -190 112 -106 176 -210 221 -360 61 -198 62 -240 58 -2695 -3 -2043
-5 -2213 -21 -2310 -61 -364 -137 -507 -362 -676 -125 -94 -347 -185 -547
-224 l-58 -11 0 -80 0 -79 1585 0 1585 0 0 79 0 79 -97 22 c-206 47 -395 128
-513 218 -235 178 -336 392 -370 782 -14 166 -14 4419 0 4575 29 317 96 498
238 647 155 163 368 273 642 333 l95 20 3 83 3 82 -1586 0 -1586 0 3 -81z
m2263 -128 c-6 -4 -71 -52 -145 -106 -255 -186 -326 -251 -363 -334 -16 -37
-22 -81 -29 -234 -5 -104 -7 -1334 -6 -2745 3 -2390 5 -2560 21 -2608 33 -99
101 -170 317 -329 58 -43 109 -81 114 -86 6 -5 -299 -9 -715 -9 -688 0 -723 1
-702 18 12 9 74 57 137 105 148 112 232 190 256 237 10 19 23 62 29 95 15 81
15 5392 0 5485 -5 36 -21 84 -35 107 -29 50 -130 136 -341 293 -84 62 -153
114 -153 116 0 2 365 4 812 4 453 0 808 -4 803 -9z"/>
<path d="M13032 12628 l3 -81 100 -23 c261 -58 450 -152 608 -304 96 -91 166
-201 206 -324 73 -223 73 -202 68 -2731 -3 -2001 -5 -2219 -20 -2305 -55 -317
-109 -443 -250 -582 -153 -153 -380 -262 -660 -318 l-57 -12 1 -79 1 -79 1688
0 1687 0 1 80 1 79 -32 6 c-134 21 -173 29 -258 51 -281 70 -502 185 -655 340
-153 156 -216 314 -244 619 -6 67 -10 578 -10 1313 l0 1202 373 0 c474 0 680
-20 891 -87 157 -49 263 -112 383 -226 192 -182 320 -474 412 -936 l27 -136
77 -3 c73 -3 77 -2 82 20 3 13 4 622 3 1353 l-3 1330 -81 3 -80 3 -13 -67 c-6
-36 -29 -119 -50 -184 -149 -453 -380 -677 -811 -785 -228 -57 -442 -75 -887
-75 l-322 0 -3 23 c-2 12 -1 461 2 997 5 970 6 976 28 1080 90 407 293 599
720 680 288 54 769 54 1086 -1 297 -50 513 -131 733 -274 309 -201 547 -497
740 -918 58 -127 144 -348 163 -417 l11 -40 85 0 86 0 -6 38 c-4 20 -47 426
-96 902 -49 476 -92 884 -95 908 l-6 42 -2815 0 -2815 0 3 -82z m5245 -122 c5
-5 104 -609 101 -618 -2 -5 -32 28 -68 74 -164 213 -346 362 -595 486 -93 47
-114 61 -95 63 28 4 653 0 657 -5z m-2992 -12 c-11 -9 -99 -74 -196 -144 -214
-157 -279 -224 -311 -318 l-23 -67 -3 -2550 c-1 -1402 1 -2635 6 -2740 7 -164
12 -197 31 -242 29 -66 132 -165 299 -288 l123 -90 -361 -3 c-198 -1 -523 -1
-722 0 l-363 3 135 101 c162 120 255 205 280 254 10 19 23 62 29 95 15 80 15
5392 1 5484 -21 124 -49 156 -326 362 -98 74 -186 139 -194 146 -12 10 158 12
800 12 737 0 813 -1 795 -15z m1785 -2919 l0 -315 -72 61 c-127 106 -296 207
-407 241 -23 7 -41 15 -41 18 0 3 17 12 38 19 157 57 324 151 422 241 30 27
56 50 58 50 1 0 2 -142 2 -315z"/>
<path d="M19182 12628 l3 -81 85 -19 c420 -90 721 -315 825 -618 77 -222 77
-211 73 -2740 l-4 -2205 -21 -130 c-26 -152 -63 -285 -99 -358 -130 -257 -412
-438 -806 -517 l-58 -11 0 -80 0 -79 2998 0 2998 0 31 108 c17 59 79 271 137
472 58 201 177 614 266 919 88 305 160 558 160 563 0 4 -42 8 -92 8 l-93 0
-30 -43 c-175 -248 -584 -698 -855 -942 -546 -491 -954 -713 -1460 -796 -103
-17 -188 -22 -475 -26 -474 -7 -704 11 -885 69 -332 107 -469 339 -514 868 -6
67 -8 2481 -3 2487 9 8 936 2 1032 -7 459 -44 706 -153 906 -400 111 -137 222
-413 294 -730 9 -41 19 -83 22 -92 4 -15 17 -18 84 -18 l79 0 0 1285 0 1286
-81 -3 -81 -3 -33 -130 c-136 -536 -398 -802 -901 -914 -205 -46 -305 -53
-826 -58 -480 -5 -498 -4 -498 13 -3 1284 1 1898 15 1989 66 436 259 660 655
760 183 46 240 50 690 50 360 0 443 -3 540 -18 531 -83 913 -289 1212 -655
188 -229 365 -570 483 -929 l27 -83 85 0 85 0 -6 48 c-9 65 -186 1812 -186
1829 0 11 -485 13 -2890 13 l-2890 0 2 -82z m5393 -151 c18 -97 102 -602 100
-605 -1 -1 -38 41 -81 95 -199 248 -369 383 -633 504 l-74 34 49 5 c27 3 180
4 341 2 l292 -3 6 -32z m-3130 24 c-6 -5 -89 -66 -185 -136 -249 -181 -304
-238 -338 -348 -14 -47 -16 -297 -19 -2604 -2 -1424 0 -2635 5 -2740 8 -158
13 -196 31 -239 27 -63 118 -153 262 -260 58 -44 118 -89 135 -101 l29 -22
-725 0 -725 0 30 25 c17 14 65 50 107 80 113 80 250 204 275 249 12 22 27 69
33 105 7 46 10 865 8 2775 -3 2540 -4 2713 -20 2761 -24 68 -124 164 -345 328
-95 70 -173 130 -173 132 0 2 365 4 812 4 466 0 808 -4 803 -9z m1955 -2938
l-5 -292 -60 51 c-119 100 -326 221 -417 243 -16 4 -28 10 -28 15 0 4 33 19
73 35 166 65 270 126 381 224 35 31 51 39 55 30 3 -8 4 -145 1 -306z m1550
-3044 c-72 -239 -133 -442 -136 -451 -5 -17 -36 -18 -467 -18 l-462 0 80 42
c114 59 312 178 440 266 167 114 302 229 495 423 96 97 176 175 178 174 1 -1
-57 -197 -128 -436z"/>
</g>
</svg>
